<?xml version="1.0" standalone="no"?>
<svg xmlns:xlink="http://www.w3.org/1999/xlink" id="wave" style="transform:rotate(180deg); transition: 0.3s" viewBox="0 0 1440 100" version="1.1" xmlns="http://www.w3.org/2000/svg"><defs><linearGradient id="sw-gradient-0" x1="0" x2="0" y1="1" y2="0"><stop stop-color="rgba(255, 204, 0, 1)" offset="0%"/><stop stop-color="rgba(255, 204, 0, 1)" offset="100%"/></linearGradient></defs><path style="transform:translate(0, 0px); opacity:1" fill="url(#sw-gradient-0)" d="M0,0L40,13.3C80,27,160,53,240,58.3C320,63,400,47,480,36.7C560,27,640,23,720,23.3C800,23,880,27,960,28.3C1040,30,1120,30,1200,33.3C1280,37,1360,43,1440,46.7C1520,50,1600,50,1680,45C1760,40,1840,30,1920,35C2000,40,2080,60,2160,61.7C2240,63,2320,47,2400,43.3C2480,40,2560,50,2640,45C2720,40,2800,20,2880,21.7C2960,23,3040,47,3120,58.3C3200,70,3280,70,3360,58.3C3440,47,3520,23,3600,11.7C3680,0,3760,0,3840,13.3C3920,27,4000,53,4080,68.3C4160,83,4240,87,4320,73.3C4400,60,4480,30,4560,18.3C4640,7,4720,13,4800,25C4880,37,4960,53,5040,60C5120,67,5200,63,5280,61.7C5360,60,5440,60,5520,58.3C5600,57,5680,53,5720,51.7L5760,50L5760,100L5720,100C5680,100,5600,100,5520,100C5440,100,5360,100,5280,100C5200,100,5120,100,5040,100C4960,100,4880,100,4800,100C4720,100,4640,100,4560,100C4480,100,4400,100,4320,100C4240,100,4160,100,4080,100C4000,100,3920,100,3840,100C3760,100,3680,100,3600,100C3520,100,3440,100,3360,100C3280,100,3200,100,3120,100C3040,100,2960,100,2880,100C2800,100,2720,100,2640,100C2560,100,2480,100,2400,100C2320,100,2240,100,2160,100C2080,100,2000,100,1920,100C1840,100,1760,100,1680,100C1600,100,1520,100,1440,100C1360,100,1280,100,1200,100C1120,100,1040,100,960,100C880,100,800,100,720,100C640,100,560,100,480,100C400,100,320,100,240,100C160,100,80,100,40,100L0,100Z"/></svg>